<mxfile host="app.diagrams.net" modified="2023-06-23T08:40:10.920Z" agent="Mozilla/5.0 (Windows NT 10.0; Win64; x64) AppleWebKit/537.36 (KHTML, like Gecko) Chrome/114.0.0.0 Safari/537.36" version="21.5.0" etag="flxK-OIQSZxAwwWXqwNS" type="github">
  <diagram name="Page-1" id="tySSGtfsja274GyEFJE2">
    <mxGraphModel>
      <root>
        <mxCell id="0" />
        <mxCell id="1" parent="0" />
      </root>
    </mxGraphModel>
  </diagram>
</mxfile>
